<?xml version="1.0" encoding="UTF-8" standalone="no"?>
<svg
   version="1.0"
   width="300.000000pt"
   height="300.000000pt"
   viewBox="0 0 300.000000 300.000000"
   preserveAspectRatio="xMidYMid meet"
   id="svg52"
   sodipodi:docname="logo2.svg"
   inkscape:version="1.4.2 (f4327f4, 2025-05-13)"
   xmlns:inkscape="http://www.inkscape.org/namespaces/inkscape"
   xmlns:sodipodi="http://sodipodi.sourceforge.net/DTD/sodipodi-0.dtd"
   xmlns="http://www.w3.org/2000/svg"
   xmlns:svg="http://www.w3.org/2000/svg">
  <defs
     id="defs52" />
  <sodipodi:namedview
     id="namedview52"
     pagecolor="#ffffff"
     bordercolor="#000000"
     borderopacity="0.25"
     inkscape:showpageshadow="2"
     inkscape:pageopacity="0.0"
     inkscape:pagecheckerboard="0"
     inkscape:deskcolor="#d1d1d1"
     inkscape:document-units="pt"
     inkscape:zoom="3.2225"
     inkscape:cx="200"
     inkscape:cy="200"
     inkscape:window-width="2560"
     inkscape:window-height="1566"
     inkscape:window-x="-11"
     inkscape:window-y="-11"
     inkscape:window-maximized="1"
     inkscape:current-layer="svg52" />
  <metadata
     id="metadata1">
Created by potrace 1.10, written by Peter Selinger 2001-2011
</metadata>
  <g
     transform="translate(0.000000,300.000000) scale(0.100000,-0.100000)"
     fill="#000000"
     stroke="none"
     id="g52"
     style="fill:#ffffff">
    <path
       d="M2578 2616 c-8 -8 -26 -11 -45 -9 -24 4 -34 0 -42 -15 -10 -19 -6 -32 11 -32 5 0 7 4 4 9 -6 8 15 21 35 21 16 0 10 -25 -10 -42 -13 -11 -21 -13 -23 -6 -2 6 -11 9 -18 6 -11 -3 -9 -8 8 -17 20 -11 26 -10 37 6 7 10 17 15 21 10 4 -4 2 -7 -4 -7 -7 0 -12 -6 -12 -12 1 -7 10 -2 21 12 12 14 28 25 36 25 21 0 38 28 30 49 -8 20 -31 21 -49 2z m34 -21 c0 -5 -5 -11 -11 -13 -6 -2 -11 4 -11 13 0 9 5 15 11 13 6 -2 11 -8 11 -13z"
       id="path1"
       style="fill:#ffffff" />
    <path
       d="M2309 2594 c-15 -18 -2 -47 24 -52 25 -5 40 33 21 52 -19 20 -28 20 -45 0z m33 -19 c0 -5 -5 -11 -11 -13 -6 -2 -11 4 -11 13 0 9 5 15 11 13 6 -2 11 -8 11 -13z"
       id="path2"
       style="fill:#ffffff" />
    <path
       d="M2461 2497 c-25 -31 13 -66 46 -42 14 11 16 18 7 32 -14 23 -38 28 -53 10z m39 -22 c0 -8 -4 -15 -9 -15 -13 0 -22 16 -14 24 11 11 23 6 23 -9z"
       id="path3"
       style="fill:#ffffff" />
    <path
       d="M2368 2471 c5 -14 4 -14 -12 -1 -16 13 -20 12 -32 -5 -13 -17 -12 -21 7 -36 17 -12 19 -18 9 -24 -9 -5 -11 -4 -6 3 4 7 2 12 -4 12 -7 0 -10 -6 -8 -12 3 -7 21 -14 41 -16 32 -3 37 0 43 22 6 26 -1 46 -17 46 -5 0 -7 -11 -3 -25 5 -19 2 -25 -10 -25 -9 0 -19 7 -22 15 -4 8 -14 15 -23 15 -13 0 -14 2 -1 9 8 6 18 7 22 5 4 -3 17 1 28 9 20 14 21 15 1 20 -15 4 -18 1 -13 -12z"
       id="path4"
       style="fill:#ffffff" />
    <path
       d="M2225 2450 c-3 -6 -10 -8 -14 -6 -14 9 -10 -37 5 -51 29 -30 80 9 58 45 -13 20 -40 27 -49 12z m35 -36 c0 -8 -6 -14 -14 -14 -16 0 -29 27 -20 41 8 13 34 -9 34 -27z"
       id="path5"
       style="fill:#ffffff" />
    <path
       d="M2521 2446 c-12 -14 -10 -16 12 -16 26 0 44 16 32 28 -3 3 -10 0 -14 -7 -7 -10 -10 -10 -13 -1 -3 9 -8 8 -17 -4z"
       id="path6"
       style="fill:#ffffff" />
    <path
       d="M2576 2445 c-3 -8 -1 -15 4 -15 16 0 11 -30 -6 -37 -10 -4 -20 0 -26 10 -10 18 -38 23 -38 8 0 -6 5 -13 12 -17 7 -5 8 -3 3 6 -6 9 -4 11 4 6 7 -5 10 -14 7 -22 -4 -10 3 -14 22 -14 48 0 66 35 38 73 -12 15 -14 16 -20 2z"
       id="path7"
       style="fill:#ffffff" />
    <path
       d="M2049 2361 c-16 -13 -20 -23 -14 -37 4 -10 7 -22 7 -26 -1 -4 10 -11 25 -14 19 -5 30 -2 40 11 19 27 16 48 -11 67 -23 17 -25 17 -47 -1z m58 -26 c4 -4 2 -5 -4 -1 -7 4 -13 2 -13 -3 0 -6 6 -11 13 -12 9 0 9 -2 -1 -6 -6 -2 -10 -9 -6 -14 9 -16 -5 -10 -26 11 -11 11 -20 25 -20 30 0 12 45 8 57 -5z"
       id="path8"
       style="fill:#ffffff" />
    <path
       d="M2443 2361 c-10 -16 -8 -22 8 -37 18 -16 20 -16 39 1 19 17 19 19 4 37 -22 23 -36 23 -51 -1z m37 -16 c0 -8 -4 -15 -10 -15 -5 0 -10 7 -10 15 0 8 5 15 10 15 6 0 10 -7 10 -15z"
       id="path9"
       style="fill:#ffffff" />
    <path
       d="M2197 2353 c-15 -14 -6 -42 15 -49 27 -8 54 22 37 43 -12 14 -41 18 -52 6z m33 -23 c0 -5 -4 -10 -10 -10 -5 0 -10 5 -10 10 0 6 5 10 10 10 6 0 10 -4 10 -10z"
       id="path10"
       style="fill:#ffffff" />
    <path
       d="M2315 2330 c-16 -18 -17 -23 -5 -45 11 -21 11 -27 0 -38 -10 -10 -11 -9 -5 2 5 9 4 12 -3 7 -16 -10 -15 -37 1 -33 6 1 11 -4 9 -11 -5 -24 30 -26 50 -2 18 22 18 24 1 42 -14 16 -15 22 -4 40 11 18 10 23 -6 40 -19 18 -20 18 -38 -2z m30 -20 c3 -5 -1 -10 -9 -10 -9 0 -16 5 -16 10 0 6 4 10 9 10 6 0 13 -4 16 -10z m5 -84 c0 -22 -26 -26 -27 -5 -1 11 5 19 13 19 8 0 14 -6 14 -14z"
       id="path11"
       style="fill:#ffffff" />
    <path
       d="M2392 2297 c-18 -22 11 -56 35 -41 25 15 23 48 -3 52 -11 2 -26 -3 -32 -11z m35 -23 c-9 -9 -28 6 -21 18 4 6 10 6 17 -1 6 -6 8 -13 4 -17z"
       id="path12"
       style="fill:#ffffff" />
    <path
       d="M2151 2224 c-26 -33 -27 -56 -3 -76 23 -21 64 -7 56 19 -5 17 -5 17 9 0 11 -13 16 -15 19 -5 4 11 8 11 20 0 15 -12 46 -8 49 7 8 37 5 47 -15 46 -12 0 -26 -3 -32 -7 -6 -4 -19 1 -29 12 -14 16 -20 17 -27 8 -6 -10 -8 -8 -8 5 0 25 -15 21 -39 -9z m51 -34 c-19 -35 -46 -36 -48 -2 -1 13 3 21 10 19 6 -2 20 -1 31 4 11 4 21 8 22 8 1 1 -6 -13 -15 -29z m80 -5 c0 -5 -5 -11 -11 -13 -6 -2 -11 4 -11 13 0 9 5 15 11 13 6 -2 11 -8 11 -13z"
       id="path13"
       style="fill:#ffffff" />
    <path
       d="M2009 2233 c-17 -4 -16 -35 2 -58 4 -6 1 -19 -7 -29 -19 -26 -18 -33 7 -39 15 -4 23 0 26 14 3 10 9 17 13 14 5 -3 11 -1 15 5 4 6 -6 10 -22 11 -28 1 -28 1 -3 8 14 3 25 13 25 21 0 22 -37 57 -56 53z m39 -38 c16 6 16 5 0 -11 -22 -22 -37 -11 -29 23 5 26 6 27 9 5 3 -17 8 -22 20 -17z m-18 -73 c0 -15 -2 -15 -10 -2 -13 20 -13 33 0 25 6 -3 10 -14 10 -23z"
       id="path14"
       style="fill:#ffffff" />
    <path
       d="M1946 2205 c-9 -9 -16 -21 -16 -27 0 -6 -8 -1 -17 11 -16 20 -20 20 -38 8 -16 -13 -22 -13 -41 -1 -16 11 -28 12 -48 4 -15 -5 -25 -14 -21 -19 3 -5 1 -12 -5 -16 -15 -9 -1 -27 16 -21 8 3 14 1 14 -3 0 -5 -6 -12 -12 -14 -8 -4 -7 -6 4 -6 9 -1 19 5 22 12 3 6 3 1 0 -13 l-7 -24 35 26 c26 20 38 24 46 16 8 -8 15 -8 27 2 14 11 21 8 49 -19 l34 -33 -1 26 c-1 16 -8 26 -17 26 -9 0 -16 10 -16 26 -2 21 2 25 18 21 14 -4 18 -1 16 10 -4 23 -23 26 -42 8z m-120 -25 c15 0 17 -9 8 -35 -6 -14 -9 -13 -30 6 -13 12 -24 17 -24 11 0 -7 -5 -12 -11 -12 -8 0 -9 4 0 13 6 8 8 18 4 23 -4 5 -1 3 7 -3 8 -7 17 -13 22 -13 4 0 6 6 4 13 -1 6 -1 9 1 5 3 -5 11 -8 19 -8z m74 -15 c0 -8 -4 -15 -10 -15 -5 0 -10 7 -10 15 0 8 5 15 10 15 6 0 10 -7 10 -15z"
       id="path15"
       style="fill:#ffffff" />
    <path
       d="M2481 2196 c-17 -18 -19 -25 -9 -29 10 -4 10 -6 1 -6 -7 -1 -13 -5 -13 -11 0 -5 7 -6 17 -3 10 4 14 2 9 -5 -3 -6 -2 -13 3 -17 5 -3 14 3 20 12 8 14 11 15 11 3 0 -8 7 -3 16 13 16 30 13 42 -15 57 -14 7 -23 4 -40 -14z m46 -24 c-1 -20 -37 -28 -37 -8 0 7 3 16 7 19 13 14 32 7 30 -11z"
       id="path16"
       style="fill:#ffffff" />
    <path
       d="M2310 2155 c-16 -19 -4 -52 21 -58 15 -4 23 0 26 14 3 10 9 16 14 13 13 -8 11 20 -3 34 -16 16 -43 15 -58 -3z m40 -20 c0 -8 -7 -15 -15 -15 -8 0 -15 7 -15 15 0 8 7 15 15 15 8 0 15 -7 15 -15z"
       id="path17"
       style="fill:#ffffff" />
    <path
       d="M2229 2102 c-7 -11 -20 -17 -33 -15 -13 2 -34 -7 -54 -24 -30 -27 -31 -31 -20 -56 10 -20 18 -25 33 -21 19 6 19 6 1 -8 -16 -13 -17 -16 -3 -21 17 -7 31 18 20 36 -17 28 -12 48 14 58 18 7 30 6 37 -1 7 -7 6 -10 -2 -10 -7 0 -12 -5 -12 -11 0 -6 7 -8 16 -5 9 4 3 -8 -14 -25 -16 -17 -32 -40 -35 -50 -4 -16 -2 -19 16 -13 37 11 49 25 36 41 -9 11 -9 12 4 8 12 -5 15 1 14 33 -1 22 1 38 4 36 3 -2 14 2 24 10 12 9 15 19 11 34 -9 27 -42 29 -57 4z m41 -12 c0 -5 -4 -10 -10 -10 -5 0 -10 5 -10 10 0 6 5 10 10 10 6 0 10 -4 10 -10z m-116 -79 c-2 -3 -12 3 -22 13 -16 17 -16 18 5 5 12 -7 20 -15 17 -18z m66 -52 c0 -6 -4 -7 -10 -4 -5 3 -10 11 -10 16 0 6 5 7 10 4 6 -3 10 -11 10 -16z"
       id="path18"
       style="fill:#ffffff" />
    <path
       d="M1607 2092 c-10 -10 -17 -26 -17 -36 0 -24 39 -54 62 -49 20 6 46 33 30 33 -6 0 -13 -5 -15 -10 -3 -6 -4 -5 -3 2 2 7 13 13 24 12 27 -1 24 29 -4 51 -26 20 -58 19 -77 -3z m75 -17 c21 5 20 4 -4 -12 -16 -10 -28 -23 -28 -30 0 -6 -4 -15 -10 -18 -6 -3 -7 1 -4 9 4 11 0 16 -10 16 -20 0 -21 29 -1 36 8 4 12 11 9 18 -3 6 1 3 10 -7 10 -13 22 -17 38 -12z"
       id="path19"
       style="fill:#ffffff" />
    <path
       d="M1736 2094 c-3 -8 -1 -24 4 -35 8 -15 7 -19 -4 -19 -15 0 -26 -21 -26 -49 0 -30 24 -71 43 -71 22 0 35 -29 17 -40 -16 -10 -9 -40 13 -54 14 -9 21 -7 31 7 13 16 15 16 30 -8 21 -31 72 -33 70 -2 -1 13 2 15 10 8 8 -7 15 -4 23 8 10 17 9 18 -10 13 -21 -5 -21 -5 -4 12 22 23 22 32 -3 39 -13 3 -20 0 -20 -9 0 -8 7 -11 18 -8 15 5 15 4 1 -5 -9 -6 -20 -22 -23 -36 -4 -16 -13 -25 -26 -25 -27 0 -27 40 0 47 13 4 20 14 20 30 0 13 -4 22 -10 18 -5 -3 -6 -13 -3 -23 6 -14 4 -15 -9 -4 -14 11 -18 10 -30 -7 -15 -21 -15 -21 -37 3 -18 19 -19 25 -8 34 8 7 16 9 20 6 3 -3 10 4 17 15 9 18 8 21 -11 21 -19 0 -20 -2 -8 -17 13 -16 12 -17 -3 -4 -22 17 -14 31 17 31 34 0 22 34 -21 61 -26 16 -32 24 -24 34 6 7 8 20 4 29 -8 21 -50 21 -58 0z m44 -15 c0 -5 -7 -9 -15 -9 -15 0 -20 12 -9 23 8 8 24 -1 24 -14z m0 -66 c1 -16 2 -16 16 2 15 19 15 19 10 -5 -4 -14 -10 -43 -15 -65 -8 -35 -9 -36 -10 -11 l-1 29 -22 -19 c-19 -15 -20 -16 -9 -1 12 15 11 17 -3 17 -19 0 -22 40 -4 58 18 18 38 15 38 -5z m60 -12 c0 -5 -7 -12 -16 -15 -14 -5 -15 -4 -4 9 14 17 20 19 20 6z m-32 -142 c-2 -6 -8 -10 -13 -10 -5 0 -11 4 -13 10 -2 6 4 11 13 11 9 0 15 -5 13 -11z"
       id="path20"
       style="fill:#ffffff" />
    <path
       d="M1898 2079 c-23 -13 -23 -31 1 -57 31 -36 69 -27 49 12 -9 17 -8 19 3 9 7 -7 22 -13 32 -13 15 0 18 -5 14 -22 -4 -12 -1 -28 5 -35 7 -8 7 -13 0 -13 -5 0 -12 6 -15 14 -6 16 -54 18 -64 3 -4 -7 0 -8 11 -4 14 6 17 3 12 -8 -3 -9 -2 -14 3 -11 5 3 12 -1 15 -9 5 -14 9 -14 31 1 15 9 24 23 21 30 -3 8 -1 14 4 14 6 0 10 8 10 18 0 22 -30 52 -51 52 -9 0 -24 7 -35 15 -23 17 -24 17 -46 4z m32 -24 c0 -8 -7 -15 -15 -15 -16 0 -20 12 -8 23 11 12 23 8 23 -8z m15 -43 c-3 -3 -11 0 -18 7 -9 10 -8 11 6 5 10 -3 15 -9 12 -12z"
       id="path21"
       style="fill:#ffffff" />
    <path
       d="M2340 2070 c-15 -27 7 -62 31 -50 23 13 32 40 18 56 -16 20 -37 17 -49 -6z m38 -11 c-2 -6 -8 -10 -13 -10 -5 0 -11 4 -13 10 -2 6 4 11 13 11 9 0 15 -5 13 -11z"
       id="path22"
       style="fill:#ffffff" />
    <path
       d="M2067 2006 c-15 -12 -16 -18 -7 -35 12 -24 28 -26 52 -7 16 11 16 15 2 34 -18 25 -23 26 -47 8z m33 -21 c0 -8 -4 -15 -9 -15 -13 0 -22 16 -14 24 11 11 23 6 23 -9z"
       id="path23"
       style="fill:#ffffff" />
    <path
       d="M2304 1978 c-3 -10 -2 -23 2 -30 5 -7 2 -9 -8 -5 -27 10 -28 -29 -2 -54 13 -12 24 -19 24 -15 0 5 6 4 13 -2 11 -9 52 -2 46 8 -2 3 5 19 16 37 17 30 17 33 1 57 -13 21 -23 25 -51 23 -23 -1 -37 -8 -41 -19z m42 -7 c7 6 18 8 24 4 15 -10 12 -45 -5 -52 -14 -5 -14 -8 2 -27 15 -17 15 -18 1 -8 -14 11 -17 10 -21 -5 -3 -11 -5 -6 -6 12 l-2 30 -14 -25 -15 -25 6 30 c4 17 8 32 10 34 2 2 -2 13 -8 25 -8 17 -8 19 3 9 9 -9 16 -9 25 -2z m-39 -57 c-3 -3 -12 -4 -19 -1 -8 3 -5 6 6 6 11 1 17 -2 13 -5z"
       id="path24"
       style="fill:#ffffff" />
    <path
       d="M1561 1961 c-25 -25 -26 -37 -5 -45 22 -9 23 -8 17 14 -8 29 25 39 46 13 15 -20 76 -39 65 -22 -3 5 -12 9 -20 9 -8 0 -13 4 -10 8 9 15 -10 32 -41 38 -24 5 -36 1 -52 -15z m76 -23 c-3 -8 -6 -5 -6 6 -1 11 2 17 5 13 3 -3 4 -12 1 -19z"
       id="path25"
       style="fill:#ffffff" />
    <path
       d="M1368 1926 c-22 -17 -25 -71 -4 -63 10 4 13 1 10 -7 -7 -17 18 -37 34 -27 17 10 5 38 -19 44 -22 6 -26 37 -4 37 8 0 26 -12 41 -26 14 -15 19 -24 10 -21 -18 7 -22 -8 -5 -19 23 -14 34 55 12 77 -16 15 -58 19 -75 5z m68 -15 c-4 -5 -1 -12 4 -14 6 -3 5 -4 -2 -3 -15 3 -23 26 -8 26 6 0 9 -4 6 -9z m-39 -73 c-3 -8 -6 -5 -6 6 -1 11 2 17 5 13 3 -3 4 -12 1 -19z"
       id="path26"
       style="fill:#ffffff" />
    <path
       d="M2060 1905 c-15 -18 -7 -43 16 -52 25 -9 46 24 31 48 -14 23 -30 24 -47 4z m32 -20 c0 -5 -5 -11 -11 -13 -6 -2 -11 4 -11 13 0 9 5 15 11 13 6 -2 11 -8 11 -13z"
       id="path27"
       style="fill:#ffffff" />
    <path
       d="M2167 1902 c-14 -15 -14 -19 -1 -37 11 -15 18 -17 32 -9 24 16 26 41 4 53 -15 8 -23 6 -35 -7z m30 -28 c-9 -9 -28 6 -21 18 4 6 10 6 17 -1 6 -6 8 -13 4 -17z"
       id="path28"
       style="fill:#ffffff" />
    <path
       d="M1540 1900 c0 -5 5 -10 10 -10 6 0 10 -10 10 -22 l0 -23 21 25 21 25 -17 -29 c-17 -28 -17 -29 0 -22 10 3 23 2 29 -3 8 -7 17 -4 29 9 15 18 15 20 -5 31 -12 7 -35 12 -50 11 -15 0 -28 4 -28 9 0 5 -4 9 -10 9 -5 0 -10 -4 -10 -10z m90 -55 c0 -5 -5 -3 -10 5 -5 8 -10 20 -10 25 0 6 5 3 10 -5 5 -8 10 -19 10 -25z"
       id="path29"
       style="fill:#ffffff" />
    <path
       d="M1630 1901 c0 -4 11 -13 24 -19 20 -9 23 -8 19 7 -4 16 -43 27 -43 12z"
       id="path30"
       style="fill:#ffffff" />
    <path
       d="M1512 1848 c-31 -31 10 -75 43 -48 21 17 19 37 -4 50 -24 13 -24 13 -39 -2z m36 -26 c2 -7 -3 -12 -12 -12 -9 0 -16 7 -16 16 0 17 22 14 28 -4z"
       id="path31"
       style="fill:#ffffff" />
    <path
       d="M1713 1806 c1 -16 -4 -21 -20 -20 -12 0 -24 -5 -27 -13 -7 -17 1 -16 49 7 43 21 73 27 41 9 -10 -7 -14 -14 -9 -18 6 -3 3 -13 -7 -24 -16 -17 -19 -17 -34 -2 -9 9 -20 13 -26 10 -6 -4 -1 -14 12 -24 l22 -18 -31 -32 c-19 -19 -34 -27 -38 -21 -4 6 -2 17 5 24 9 12 4 12 -32 5 -24 -6 -49 -17 -55 -26 -7 -9 -16 -14 -19 -10 -4 4 -12 3 -18 -2 -18 -14 -48 -22 -41 -11 3 6 13 10 21 10 11 0 13 6 9 20 -4 11 -2 20 4 20 6 0 11 5 11 11 0 5 -5 7 -11 3 -7 -4 -10 -1 -7 7 3 8 13 13 23 11 10 -2 14 1 10 7 -10 17 4 13 32 -9 31 -24 59 -26 67 -4 8 20 -2 37 -19 30 -7 -2 -21 4 -30 14 -15 16 -19 17 -45 3 -37 -18 -71 -60 -64 -78 3 -8 0 -22 -6 -32 -10 -16 -11 -16 -7 5 4 15 -3 31 -17 47 -28 31 -33 31 -58 3 -11 -13 -17 -18 -14 -11 4 6 2 14 -4 18 -5 3 -10 17 -10 31 0 17 5 24 20 24 14 0 18 5 14 18 -4 9 5 1 17 -19 17 -24 30 -34 44 -32 19 3 19 3 1 -5 -11 -5 -15 -11 -10 -15 16 -10 30 6 29 34 0 25 -1 26 -25 10 -25 -15 -25 -15 -8 5 16 19 16 22 2 40 -10 12 -17 15 -20 8 -3 -7 -13 -10 -22 -7 -11 3 -30 -9 -50 -31 -18 -20 -38 -36 -45 -36 -8 0 -8 3 2 9 11 7 11 10 0 17 -22 13 -46 11 -45 -4 1 -8 -6 -17 -14 -19 -13 -4 -13 -3 0 7 12 9 12 11 1 8 -16 -4 -23 -48 -9 -48 5 0 7 -4 4 -9 -8 -13 21 -34 39 -27 8 3 15 0 15 -5 0 -7 -11 -9 -25 -7 -14 3 -25 1 -25 -6 0 -8 -2 -8 -8 0 -4 6 -17 16 -30 23 -27 14 -55 -1 -46 -24 3 -8 -6 -19 -23 -27 -15 -8 -27 -20 -25 -27 1 -7 -8 -21 -20 -31 -19 -15 -21 -21 -11 -43 10 -22 9 -26 -8 -30 -10 -3 -19 -13 -19 -22 0 -19 29 -77 42 -86 6 -4 -10 -9 -35 -13 -25 -4 -62 -18 -82 -32 -20 -13 -40 -24 -44 -24 -5 0 -14 -7 -21 -15 -19 -23 3 -42 56 -50 l44 -6 -20 -26 c-11 -14 -20 -34 -20 -44 0 -34 -47 -59 -112 -59 -32 0 -71 -6 -86 -14 -15 -8 -86 -76 -157 -151 -185 -196 -194 -205 -207 -205 -6 0 -8 -3 -5 -6 4 -4 -5 -20 -18 -36 -14 -16 -25 -40 -25 -52 0 -29 46 -93 106 -148 26 -24 59 -54 73 -67 34 -31 77 -49 107 -43 23 4 90 69 251 245 23 25 44 42 47 39 3 -3 6 0 6 6 0 7 21 33 46 60 65 68 76 92 73 170 -3 68 17 122 45 122 7 0 26 13 43 30 24 24 30 38 30 71 0 44 20 72 61 84 26 8 42 -19 23 -38 -10 -9 -15 -8 -26 7 -8 10 -19 15 -25 11 -7 -4 -1 -15 16 -30 l28 -24 25 27 c27 29 83 40 74 14 -5 -11 -7 -11 -14 0 -7 10 -9 9 -9 -3 0 -23 54 -30 81 -11 26 18 112 9 163 -19 45 -24 67 -24 115 1 21 10 74 24 117 29 90 12 232 31 414 56 69 10 131 24 139 31 17 15 8 44 -14 44 -9 0 -31 11 -48 24 -18 13 -54 27 -81 31 -27 4 -45 10 -40 13 6 4 20 24 32 46 23 39 18 66 -13 66 -11 0 -11 6 -2 31 11 28 10 33 -10 46 -13 9 -23 21 -23 29 0 16 -34 36 -45 26 -4 -4 -5 1 -3 12 5 31 -27 43 -61 23 -26 -15 -30 -15 -35 -1 -3 8 -10 12 -16 9 -6 -3 -13 2 -16 12 -3 10 -10 26 -15 36 -9 16 -7 17 9 8 17 -9 19 -7 16 15 -3 31 -31 64 -54 64 -25 0 -54 -25 -45 -40 6 -10 10 -9 17 4 11 20 48 21 48 1 0 -8 8 -15 18 -16 11 -1 9 -3 -7 -8 -13 -3 -25 -15 -27 -25 -1 -10 -8 -24 -14 -30 -9 -8 -10 -4 -5 15 5 21 1 29 -20 43 -15 10 -28 16 -30 14 -6 -5 19 -34 35 -41 9 -3 5 -6 -11 -6 -28 -1 -55 22 -45 38 4 6 -5 18 -19 27 -31 20 -47 9 -50 -33 -1 -15 -5 -39 -9 -52 -6 -16 -5 -21 3 -17 6 4 11 2 11 -4 0 -6 5 -8 12 -4 7 5 9 2 5 -9 -3 -8 0 -18 7 -20 18 -7 40 8 32 22 -4 7 -1 9 8 5 9 -3 17 2 21 15 8 25 18 27 35 6 10 -12 10 -18 -1 -32 -8 -9 -13 -18 -11 -20 1 -1 2 -15 2 -29 0 -18 -4 -24 -13 -21 -8 3 -20 1 -28 -3 -8 -5 -19 -5 -26 1 -7 6 -17 8 -22 5 -5 -4 -13 -1 -16 4 -5 8 -12 7 -23 -3 -10 -8 -25 -17 -35 -20 -10 -4 -16 -11 -13 -16 3 -5 -1 -14 -10 -21 -21 -18 -43 3 -25 24 12 14 7 54 -8 66 -3 3 -11 14 -17 25 -10 19 -9 21 15 20 24 0 26 -3 24 -38 -2 -22 2 -37 8 -37 6 0 8 7 5 16 -4 11 -2 15 8 11 8 -3 19 0 25 7 8 10 3 20 -20 40 l-30 27 25 24 c33 30 32 80 -2 79 -14 0 -21 4 -18 11 2 6 -2 12 -10 12 -7 0 -12 -9 -11 -21z m-267 -22 c-4 -9 -9 -15 -11 -12 -3 3 -3 13 1 22 4 9 9 15 11 12 3 -3 3 -13 -1 -22z m414 -25 c0 -5 -7 -9 -15 -9 -15 0 -20 12 -9 23 8 8 24 -1 24 -14z m-554 -4 c-3 -8 1 -21 8 -28 12 -11 11 -15 -6 -26 -15 -9 -23 -9 -34 0 -12 9 -10 16 9 40 25 32 32 36 23 14z m283 -25 c0 -10 -3 -8 -9 5 -12 27 -12 43 0 25 5 -8 9 -22 9 -30z m41 -5 c-7 -8 -18 -15 -24 -15 -6 0 -2 7 8 15 25 19 32 19 16 0z m236 -10 c3 -8 1 -27 -4 -42 -9 -24 -11 -25 -11 -6 -1 12 -6 23 -13 25 -14 5 -3 38 12 38 6 0 13 -7 16 -15z m-439 -27 c-3 -7 -5 -2 -5 12 0 14 2 19 5 13 2 -7 2 -19 0 -25z m568 22 c3 -5 1 -10 -4 -10 -6 0 -11 5 -11 10 0 6 2 10 4 10 3 0 8 -4 11 -10z m-619 -17 c7 -16 9 -29 13 -81 1 -9 9 -11 24 -7 16 4 18 3 7 -3 -16 -10 -56 -10 -65 0 -4 3 -1 15 6 26 16 26 5 52 -22 52 -18 0 -19 2 -9 15 17 20 36 19 46 -2z m114 -68 c24 0 21 -45 -4 -54 -30 -12 -49 -2 -43 21 4 15 -2 23 -26 34 l-32 15 35 -6 35 -6 -30 20 c-16 12 -25 21 -18 21 6 0 15 -4 18 -10 11 -18 23 -10 18 13 -3 13 2 8 14 -13 10 -19 25 -35 33 -35z m533 37 c19 10 20 9 9 -4 -21 -26 15 -31 53 -8 45 28 48 26 25 -21 -23 -44 -22 -59 3 -35 8 8 17 12 21 9 3 -4 6 -2 6 3 0 5 8 10 18 11 13 1 17 -5 17 -23 -2 -29 -6 -33 -33 -39 -15 -2 -19 0 -15 11 3 8 2 14 -3 14 -23 0 -280 -148 -272 -156 2 -2 44 17 93 41 79 39 262 101 271 92 2 -2 -8 -20 -22 -40 l-25 -37 36 0 c19 0 35 -2 35 -4 0 -3 -9 -21 -21 -40 -20 -34 -21 -34 -72 -29 -29 3 -88 -2 -133 -10 -90 -17 -219 -71 -209 -87 3 -5 11 -10 16 -10 6 0 8 4 5 9 -9 14 86 50 159 60 113 16 310 -12 334 -48 9 -14 24 -21 44 -21 17 0 27 -3 23 -7 -7 -8 -85 -19 -491 -74 -117 -16 -166 -27 -184 -40 -30 -24 -69 -24 -94 -1 -26 23 -174 44 -181 25 -7 -18 -36 -17 -36 1 0 15 -19 20 -105 31 -27 3 -63 8 -80 11 -21 4 -26 2 -16 -4 17 -12 7 -46 -12 -39 -6 2 -12 13 -11 25 1 24 -5 26 -138 42 -54 7 -98 16 -98 21 0 12 -14 13 194 -16 100 -14 233 -32 296 -40 63 -9 129 -18 145 -21 17 -4 27 -4 24 0 -11 12 -140 35 -334 60 -179 23 -188 25 -95 20 47 -2 129 -11 184 -19 54 -8 110 -13 125 -10 22 5 23 4 6 -4 -11 -5 -14 -10 -7 -10 7 -1 27 6 44 15 23 12 27 18 17 24 -7 5 -21 4 -30 -1 -10 -5 -24 -9 -31 -9 -7 1 -1 8 15 16 15 8 32 12 37 9 6 -3 10 -4 10 -1 0 6 -95 56 -105 56 -4 0 -4 -4 -1 -9 4 -5 0 -12 -6 -15 -7 -3 1 -3 17 0 23 4 27 3 15 -5 -12 -9 -13 -11 -1 -11 8 0 12 -2 9 -5 -2 -3 -38 3 -79 14 -80 20 -137 25 -239 21 -52 -3 -41 -5 55 -10 109 -7 273 -36 262 -46 -3 -3 -50 4 -105 16 -113 23 -136 24 -127 10 3 -5 18 -10 33 -10 37 0 204 -31 198 -37 -2 -3 -49 3 -103 13 -63 11 -147 17 -235 17 -130 0 -136 1 -125 18 18 28 108 44 254 44 100 0 129 3 121 12 -5 6 -35 14 -66 18 -31 3 -72 8 -90 11 -19 3 -32 2 -29 -3 3 -5 -11 -7 -32 -5 -28 3 -41 11 -59 38 -28 43 -28 44 8 44 36 0 36 3 9 46 l-21 34 31 -6 c30 -6 30 -6 21 27 -6 19 -10 35 -10 36 0 1 20 -6 44 -17 l45 -19 -19 45 c-11 24 -17 44 -14 44 2 0 41 -23 87 -51 45 -29 94 -52 109 -52 22 -1 25 -4 18 -17 -7 -12 -2 -20 19 -33 44 -26 173 -167 167 -183 -3 -7 0 -13 6 -11 6 1 20 -17 32 -40 11 -23 23 -42 26 -42 3 -1 17 22 33 50 15 27 31 48 36 45 5 -3 16 3 26 14 10 11 21 17 26 15 4 -3 10 -1 14 5 4 6 11 7 17 4 7 -4 8 -2 4 5 -4 6 -13 8 -19 4 -7 -3 -4 3 7 15 25 29 149 113 214 146 37 19 56 36 66 59 7 17 12 33 10 35 -4 6 -84 -51 -84 -60 0 -5 -4 -7 -8 -4 -13 7 -159 -111 -219 -178 -67 -73 -70 -62 -4 14 44 50 47 58 35 75 -12 16 -17 17 -40 5 -24 -14 -25 -14 -5 -22 26 -9 26 -15 -1 -44 -30 -31 -52 -32 -42 -2 6 22 6 22 -19 5 -25 -16 -26 -16 -32 4 -4 12 -2 26 5 33 10 8 11 6 5 -11 -9 -32 2 -29 51 17 24 22 50 40 59 40 25 0 17 26 -11 39 -15 6 -24 15 -20 18 3 4 12 1 18 -5 18 -18 26 -14 31 16 4 26 4 26 6 -4 1 -21 8 -35 26 -44 13 -7 22 -17 19 -22 -11 -17 9 -7 63 35 39 29 51 43 40 45 -23 5 -21 29 3 42 28 15 43 4 29 -21 -9 -19 -9 -19 10 -10 31 17 33 27 6 39 -17 8 -25 19 -24 34 l2 23 4 -22 c4 -20 7 -22 26 -11z m-391 -2 c9 -13 19 -18 35 -14 22 6 24 3 27 -28 1 -7 6 -17 13 -23 8 -7 6 -15 -9 -30 -16 -17 -18 -17 -12 -2 5 13 2 16 -10 11 -21 -8 -15 -28 9 -33 33 -6 46 -26 31 -46 -15 -20 -36 -12 -36 13 0 21 -40 49 -41 30 0 -7 -6 0 -13 15 -15 33 -32 47 -62 47 -12 0 -24 7 -28 15 -4 10 1 14 16 12 15 -1 24 5 29 23 7 24 7 24 9 -5 2 -19 4 -24 7 -12 3 12 10 16 21 12 13 -5 12 -2 -3 15 -10 11 -13 20 -7 20 7 0 17 -9 24 -20z m348 6 c0 -20 -13 -27 -30 -14 -12 8 -11 9 4 4 13 -5 17 -2 12 9 -3 8 -1 15 4 15 6 0 10 -6 10 -14z m-635 -26 c-5 -8 -11 -8 -17 -2 -6 6 -7 16 -3 22 5 8 11 8 17 2 6 -6 7 -16 3 -22z m428 3 c-7 -2 -19 -2 -25 0 -7 3 -2 5 12 5 14 0 19 -2 13 -5z m78 -80 c-8 -15 -10 -15 -11 -2 0 17 10 32 18 25 2 -3 -1 -13 -7 -23z m64 7 c6 -10 -53 -45 -62 -36 -3 3 3 9 13 13 10 3 23 12 27 20 10 16 14 16 22 3z m-322 -14 c14 -11 15 -16 5 -23 -9 -5 0 -10 27 -14 l40 -6 -37 -2 c-32 -1 -40 -6 -58 -38 l-21 -38 7 32 c5 29 2 34 -20 43 -32 12 -35 24 -3 14 21 -6 21 -6 4 13 -9 11 -14 23 -10 26 11 11 47 7 66 -7z m-148 -16 c-3 -5 -11 -10 -16 -10 -6 0 -7 5 -4 10 3 6 11 10 16 10 6 0 7 -4 4 -10z m50 -9 c-3 -5 -1 -12 5 -16 5 -3 10 -14 10 -23 0 -15 -2 -15 -10 -2 -5 8 -10 12 -10 8 0 -4 -9 0 -19 9 -23 19 -19 33 10 33 11 0 18 -4 14 -9z m298 -8 c-7 -2 -21 -2 -30 0 -10 3 -4 5 12 5 17 0 24 -2 18 -5z m-243 -27 c0 -2 -8 -10 -17 -17 -16 -13 -17 -12 -4 4 13 16 21 21 21 13z m73 -7 c13 -6 29 -26 36 -45 8 -21 23 -39 37 -44 29 -11 32 -20 4 -13 -14 4 -20 0 -20 -10 0 -22 -39 -42 -52 -29 -7 7 -5 21 9 44 15 26 17 39 10 56 -6 12 -13 22 -17 22 -9 0 -47 29 -38 30 4 0 18 -5 31 -11z m10 -81 c-7 -13 -50 -9 -61 5 -6 7 -7 18 -3 26 6 9 11 10 15 2 4 -6 4 -15 1 -21 -4 -6 6 -10 21 -10 l28 0 -27 28 c-15 15 -27 32 -27 37 0 5 13 -6 29 -25 16 -19 27 -38 24 -42z m77 -52 c0 -8 -4 -17 -9 -21 -12 -7 -24 12 -16 25 9 15 25 12 25 -4z m-212 -35 c11 -6 10 -10 -4 -15 -9 -3 -19 -4 -22 -1 -3 3 1 5 9 5 11 0 11 2 -1 10 -8 5 -10 10 -5 10 6 0 16 -4 23 -9z m27 -41 c-3 -5 -12 -10 -18 -10 -7 0 -6 4 3 10 19 12 23 12 15 0z m-325 -121 c0 -15 -10 -10 -58 28 -26 21 -49 38 -51 39 -1 2 0 8 4 14 7 11 105 -64 105 -81z m-66 16 c58 -54 59 -55 42 -80 -9 -14 -21 -26 -26 -26 -6 -1 -14 -2 -19 -3 -5 0 -23 -18 -39 -39 -29 -36 -30 -41 -25 -111 l6 -73 -79 -86 c-251 -274 -301 -326 -322 -332 -42 -13 -75 6 -173 104 -72 71 -99 104 -99 122 0 18 51 78 195 231 106 113 201 208 210 212 9 3 46 6 82 6 60 0 67 2 94 31 16 17 29 36 29 43 0 21 31 56 48 56 9 -1 43 -25 76 -55z"
       id="path32"
       style="fill:#ffffff" />
    <path
       d="M1260 1606 c0 -9 -4 -16 -10 -16 -22 0 -8 -16 28 -32 47 -21 131 -69 156 -88 54 -43 71 -60 52 -53 -13 4 -17 3 -12 -5 5 -8 2 -10 -9 -5 -13 4 -14 8 -4 13 12 8 -30 39 -141 103 -69 40 -160 78 -160 67 0 -6 6 -10 14 -10 20 0 31 -21 16 -30 -8 -5 14 -16 56 -30 97 -33 211 -87 201 -96 -2 -3 -35 11 -73 30 -70 34 -233 90 -241 82 -3 -2 3 -16 12 -29 18 -28 96 -49 103 -28 5 15 18 14 34 -2 7 -8 38 -22 68 -32 30 -10 71 -26 90 -35 19 -9 40 -15 46 -13 6 2 11 -3 11 -12 0 -19 0 -19 -49 6 -43 22 -144 59 -160 59 -5 0 -6 -4 -3 -10 3 -5 -3 -10 -13 -10 -11 0 -22 6 -25 14 -4 10 -27 15 -76 18 -39 1 -71 1 -71 -2 0 -3 9 -16 20 -30 17 -22 19 -23 25 -7 8 18 45 24 45 6 0 -6 12 -10 28 -9 15 1 29 1 32 0 6 -3 23 -5 105 -15 38 -5 67 -15 78 -26 10 -11 23 -19 30 -19 12 0 97 -53 100 -63 1 -3 -9 -17 -22 -31 -14 -14 -19 -26 -13 -26 6 0 13 4 16 9 3 5 15 7 25 4 10 -3 22 0 26 7 5 8 13 6 28 -7 12 -9 4 2 -18 25 -22 24 -55 52 -73 64 -24 14 -30 23 -23 32 7 9 7 16 -1 24 -8 8 -8 12 -1 12 13 0 35 -25 28 -32 -3 -3 1 -11 10 -18 8 -7 15 -9 15 -5 0 4 8 2 18 -6 9 -7 -21 26 -68 74 -55 56 -92 87 -106 87 -25 0 -78 39 -54 40 8 0 -2 11 -23 25 -20 14 -42 23 -49 19 -6 -4 -8 -3 -4 4 3 6 2 13 -4 17 -5 3 -10 -1 -10 -9z m-23 -172 c-3 -3 -12 -4 -19 -1 -8 3 -5 6 6 6 11 1 17 -2 13 -5z m359 -162 c-14 -14 -35 -9 -33 8 1 15 5 17 20 8 10 -5 16 -12 13 -16z"
       id="path33"
       style="fill:#ffffff" />
    <path
       d="M2090 1511 c-76 -25 -230 -95 -230 -105 0 -2 28 7 61 21 34 14 100 32 148 40 63 12 91 21 103 37 36 43 30 44 -82 7z"
       id="path34"
       style="fill:#ffffff" />
    <path
       d="M2102 1459 c-89 -11 -167 -35 -243 -75 -65 -35 -185 -131 -175 -142 3 -3 15 3 26 13 29 26 45 26 70 0 l21 -22 -42 -7 c-23 -4 -40 -8 -38 -11 4 -3 170 19 504 68 55 8 84 15 65 16 -42 1 -246 -23 -383 -45 l-99 -16 -29 27 c-27 27 -30 45 -8 45 6 0 8 -4 4 -9 -7 -12 42 -51 64 -51 9 1 1 7 -18 16 -19 8 -32 17 -29 19 3 3 21 -1 40 -10 32 -13 49 -12 169 5 74 10 152 21 174 23 37 3 36 4 -10 5 -43 2 -121 -8 -275 -33 -27 -4 -30 -3 -14 4 48 21 240 44 334 38 53 -3 84 -1 70 3 -43 14 -214 11 -300 -6 -45 -8 -84 -13 -86 -11 -11 11 159 37 243 37 143 0 107 10 -48 13 -74 1 -123 1 -109 -1 20 -4 15 -7 -25 -18 -93 -25 -101 -27 -85 -15 19 13 0 14 -20 1 -13 -9 -13 -10 0 -10 8 -1 5 -5 -8 -11 -17 -6 -29 -5 -44 5 -19 14 -17 16 51 50 88 45 174 66 270 66 58 0 77 4 87 18 27 35 17 37 -104 21z m-227 -169 c-11 -5 -27 -9 -35 -9 -9 0 -8 4 5 9 11 5 27 9 35 9 9 0 8 -4 -5 -9z"
       id="path35"
       style="fill:#ffffff" />
    <path
       d="M1824 1405 c-11 -8 -14 -15 -6 -15 19 0 26 4 28 18 3 15 2 15 -22 -3z"
       id="path36"
       style="fill:#ffffff" />
    <path
       d="M1328 1353 c6 -2 18 -2 25 0 6 3 1 5 -13 5 -14 0 -19 -2 -12 -5z"
       id="path37"
       style="fill:#ffffff" />
    <path
       d="M1378 1343 c6 -2 18 -2 25 0 6 3 1 5 -13 5 -14 0 -19 -2 -12 -5z"
       id="path38"
       style="fill:#ffffff" />
    <path
       d="M1928 1343 c7 -3 16 -2 19 1 4 3 -2 6 -13 5 -11 0 -14 -3 -6 -6z"
       id="path39"
       style="fill:#ffffff" />
    <path
       d="M1043 1322 c-7 -4 20 -6 60 -4 102 4 115 10 27 11 -41 0 -80 -3 -87 -7z"
       id="path40"
       style="fill:#ffffff" />
    <path
       d="M1622 1193 c13 -17 63 -17 76 0 8 9 -1 12 -38 12 -38 0 -46 -3 -38 -12z"
       id="path41"
       style="fill:#ffffff" />
    <path
       d="M1666 1625 c4 -8 10 -12 15 -9 11 6 2 24 -11 24 -5 0 -7 -7 -4 -15z"
       id="path42"
       style="fill:#ffffff" />
    <path
       d="M1035 1200 c-18 -20 -18 -21 0 -38 15 -13 16 -13 7 -1 -10 13 -8 19 7 33 11 10 22 13 25 8 3 -5 -1 -15 -9 -22 -12 -10 -9 -18 23 -56 41 -49 52 -52 75 -26 16 17 15 20 -7 41 -14 13 -29 20 -35 17 -5 -4 -12 -2 -16 4 -4 6 -11 7 -17 4 -7 -4 -8 -2 -4 5 6 9 12 9 24 -1 10 -7 4 2 -12 20 -35 38 -37 38 -61 12z m115 -95 c-7 -8 -17 -15 -23 -15 -6 0 -2 7 9 15 25 19 30 19 14 0z"
       id="path43"
       style="fill:#ffffff" />
    <path
       d="M1002 1119 c-13 -16 -19 -29 -13 -29 16 0 13 -29 -4 -46 -9 -10 -15 -11 -15 -4 0 7 -9 9 -22 6 l-23 -6 23 11 c12 7 22 18 22 26 0 10 -5 11 -19 3 -13 -7 -28 -7 -46 0 -37 14 -88 13 -79 -2 5 -8 2 -9 -10 -5 -11 5 -15 3 -10 -5 5 -7 2 -9 -9 -5 -14 5 -47 -20 -39 -30 2 -3 -26 -32 -62 -65 -36 -33 -64 -64 -61 -68 3 -5 -20 -30 -52 -57 -31 -26 -82 -78 -114 -115 -69 -80 -68 -83 11 -165 75 -77 148 -133 172 -133 12 0 52 34 101 86 45 48 82 89 82 93 0 3 4 12 9 19 4 7 5 16 2 19 -10 10 -51 9 -59 -2 -5 -5 -6 3 -2 19 5 25 4 28 -8 18 -11 -9 -14 -8 -14 3 0 8 7 17 15 20 10 3 12 14 8 33 -5 26 -5 26 6 4 6 -13 17 -21 24 -18 14 5 29 -28 20 -43 -3 -4 3 -16 13 -25 17 -16 23 -12 105 75 48 50 92 103 97 117 6 15 7 54 4 88 -7 59 -6 62 25 98 30 34 32 38 16 55 -9 10 -14 20 -11 23 8 7 -24 32 -43 34 -10 1 -27 -11 -40 -27z m69 4 c13 -16 12 -17 -3 -4 -10 7 -18 15 -18 17 0 8 8 3 21 -13z m-3 -26 c16 -19 -1 -40 -26 -33 -17 6 -21 18 -13 44 3 7 30 0 39 -11z m-168 -42 c24 -14 24 -14 3 -15 -23 0 -43 -20 -21 -20 8 -1 6 -6 -6 -15 -17 -13 -18 -18 -6 -40 7 -14 17 -25 22 -25 5 0 6 5 2 11 -4 7 -1 10 7 7 14 -5 22 -78 9 -78 -8 0 -24 30 -22 41 1 4 -10 17 -23 29 l-24 23 -10 -27 c-11 -28 -25 -33 -37 -14 -5 8 -2 9 9 5 12 -4 17 -1 18 11 1 9 3 27 4 39 2 18 -1 21 -16 13 -9 -5 -19 -13 -21 -17 -7 -16 -148 -146 -148 -136 0 19 160 198 188 210 35 15 42 15 72 -2z m135 -16 c-6 -16 -4 -20 6 -14 11 6 12 5 2 -6 -7 -7 -13 -23 -13 -35 0 -17 -5 -21 -19 -17 -23 6 -34 29 -26 54 4 11 12 16 21 12 8 -3 14 -2 13 3 -3 16 1 24 12 24 6 0 8 -9 4 -21z m-77 -33 c13 5 14 4 3 -4 -7 -5 -9 -12 -4 -15 14 -9 10 -60 -4 -65 -7 -2 -13 1 -13 8 0 6 5 8 10 5 6 -3 10 1 10 9 0 9 -3 15 -7 14 -21 -4 -40 15 -35 34 3 14 1 19 -6 14 -8 -5 -10 -2 -6 8 5 13 8 14 20 1 8 -8 22 -12 32 -9z m-61 -22 c-3 -3 -12 -4 -19 -1 -8 3 -5 6 6 6 11 1 17 -2 13 -5z m123 -70 c0 -13 -6 -24 -12 -24 -9 0 -8 -3 2 -9 8 -6 17 -8 21 -5 4 2 4 -9 -1 -26 -9 -31 -80 -119 -141 -175 -18 -16 1 7 42 53 86 96 98 114 79 120 -9 3 -9 6 -1 11 7 5 2 12 -14 21 -22 12 -28 12 -43 -3 -16 -17 -16 -19 0 -48 14 -23 15 -35 8 -50 -12 -21 -35 -25 -45 -9 -4 6 -11 8 -16 5 -14 -9 -11 1 11 40 11 20 20 42 20 49 0 8 7 16 15 20 8 3 15 12 15 21 0 8 5 15 10 15 6 0 10 6 10 14 0 9 7 12 20 9 13 -3 20 -14 20 -29z m-165 6 c-3 -5 -1 -10 4 -10 6 0 11 -9 11 -19 0 -22 -29 -36 -43 -22 -7 7 -16 7 -26 -2 -12 -8 -11 -6 2 9 9 11 17 26 17 32 0 6 8 13 18 15 9 3 18 5 20 6 2 0 0 -3 -3 -9z m95 -16 c0 -2 -7 -4 -15 -4 -8 0 -15 4 -15 10 0 5 7 7 15 4 8 -4 15 -8 15 -10z m-192 -3 c11 -7 11 -9 0 -13 -7 -3 -21 -19 -31 -36 -17 -30 -17 -31 3 -29 15 1 19 7 15 22 -3 11 -2 14 1 7 3 -6 9 -10 13 -8 3 2 5 -14 3 -36 -4 -39 -4 -40 19 -28 21 10 22 10 7 -3 -10 -8 -18 -20 -18 -27 0 -7 -10 2 -23 21 -13 19 -31 33 -40 33 -21 -2 -22 13 -2 33 9 9 13 23 10 34 -11 33 13 50 43 30z m52 5 c0 -2 -7 -6 -15 -10 -8 -3 -15 -1 -15 4 0 6 7 10 15 10 8 0 15 -2 15 -4z m-35 -36 c3 -5 2 -10 -4 -10 -5 0 -13 5 -16 10 -3 6 -2 10 4 10 5 0 13 -4 16 -10z m191 -18 c-17 -16 -18 -16 -5 5 7 12 15 20 18 17 3 -2 -3 -12 -13 -22z m-56 3 c7 -9 8 -15 2 -15 -5 0 -12 7 -16 15 -3 8 -4 15 -2 15 2 0 9 -7 16 -15z m-70 -25 c6 -11 7 -20 1 -20 -5 0 -12 -11 -15 -25 -4 -14 -11 -25 -16 -25 -5 0 -7 7 -4 15 4 9 -2 18 -17 24 -13 5 -18 10 -11 10 6 1 11 4 11 9 -6 36 33 46 51 12z m-260 -4 c0 -2 -8 -10 -17 -17 -16 -13 -17 -12 -4 4 13 16 21 21 21 13z m27 -30 c-9 -13 -13 -26 -9 -29 4 -2 2 -2 -5 -1 -7 2 -30 -18 -53 -44 -42 -49 -49 -65 -26 -56 8 3 17 1 21 -5 3 -6 0 -11 -7 -11 -9 0 -9 -3 2 -10 9 -6 10 -10 3 -10 -6 0 -19 -3 -29 -7 -11 -4 -15 -3 -10 5 3 6 2 13 -3 16 -5 4 -13 -3 -16 -15 -8 -24 4 -39 98 -120 37 -33 64 -59 59 -59 -10 0 -84 61 -154 129 -34 32 -46 51 -42 63 6 20 176 189 183 182 2 -2 -4 -14 -12 -28z m97 -6 c21 0 25 -32 7 -55 -11 -14 -11 -16 -1 -7 20 17 35 15 20 -3 -7 -8 -20 -15 -29 -15 -11 0 -8 -5 10 -18 36 -24 93 -82 80 -82 -5 0 -12 4 -15 9 -5 8 -56 13 -56 5 0 -3 12 -9 26 -14 28 -11 28 -33 1 -38 -11 -2 -17 3 -17 17 0 11 -9 25 -20 31 -18 9 -20 8 -20 -16 0 -21 4 -25 18 -20 14 5 14 4 -2 -9 -21 -16 -21 -16 9 -34 19 -11 18 -12 -6 -7 -23 5 -25 3 -21 -24 4 -28 3 -30 -28 -26 -17 2 -39 11 -48 20 -15 15 -15 18 -2 26 13 8 12 13 -7 32 -20 19 -23 20 -23 5 0 -19 -25 -23 -35 -6 -4 6 2 13 14 16 23 6 25 11 12 32 -7 11 -13 8 -26 -13 -10 -15 -20 -24 -22 -22 -3 3 4 17 15 31 16 20 19 32 12 55 -7 26 -5 30 22 39 17 6 45 11 62 11 24 0 27 3 16 10 -8 5 -12 10 -9 10 4 0 3 16 -1 35 -7 32 -6 35 11 30 15 -5 19 -1 20 17 l0 23 9 -22 c5 -13 16 -23 24 -23z m289 33 c-7 -2 -19 -2 -25 0 -7 3 -2 5 12 5 14 0 19 -2 13 -5z m-96 -9 c-3 -3 -12 -4 -19 -1 -8 3 -5 6 6 6 11 1 17 -2 13 -5z m-30 -20 c-3 -3 -12 -4 -19 -1 -8 3 -5 6 6 6 11 1 17 -2 13 -5z m13 -76 c0 -19 -25 -25 -35 -8 -3 5 0 18 7 29 13 22 28 11 28 -21z m20 32 c0 -5 -5 -10 -11 -10 -5 0 -7 5 -4 10 3 6 8 10 11 10 2 0 4 -4 4 -10z m-265 -10 c3 -5 2 -10 -4 -10 -5 0 -13 5 -16 10 -3 6 -2 10 4 10 5 0 13 -4 16 -10z m140 -20 c3 -5 2 -10 -4 -10 -5 0 -13 5 -16 10 -3 6 -2 10 4 10 5 0 13 -4 16 -10z m55 -113 c0 -1 -24 -25 -52 -52 l-53 -50 50 53 c46 48 55 57 55 49z"
       id="path44"
       style="fill:#ffffff" />
    <path
       d="M440 631 c0 -5 5 -13 10 -16 6 -3 10 -2 10 4 0 5 -4 13 -10 16 -5 3 -10 2 -10 -4z"
       id="path45"
       style="fill:#ffffff" />
    <path
       d="M609 691 c12 -8 12 -12 2 -25 -8 -9 -10 -16 -5 -16 5 -1 -1 -6 -13 -13 l-22 -12 21 -33 c18 -28 25 -33 47 -27 14 3 31 6 36 7 6 1 10 15 10 32 0 21 4 30 14 28 7 -1 19 2 25 8 7 5 16 7 19 3 4 -3 7 -2 7 4 0 12 -50 37 -67 34 -6 -1 -14 3 -18 9 -3 5 -21 10 -38 10 -23 0 -28 -3 -18 -9z m36 -21 c-10 -11 -23 -20 -29 -20 -6 0 0 9 14 20 32 25 38 25 15 0z m35 -21 c0 -5 -4 -9 -10 -9 -5 0 -10 7 -10 16 0 8 5 12 10 9 6 -3 10 -10 10 -16z m30 6 c7 -9 8 -15 2 -15 -5 0 -12 7 -16 15 -3 8 -4 15 -2 15 2 0 9 -7 16 -15z m-59 -25 c5 0 8 -10 8 -22 -1 -15 -3 -17 -6 -7 -2 9 -14 22 -26 28 -14 7 -15 10 -4 6 10 -3 23 -5 28 -5z m-6 -58 c-7 -7 -34 18 -47 42 -8 16 -3 14 21 -8 17 -16 29 -32 26 -34z"
       id="path46"
       style="fill:#ffffff" />
    <path
       d="M655 510 c-19 -8 -19 -9 3 -9 12 -1 22 4 22 9 0 6 -1 10 -2 9 -2 0 -12 -4 -23 -9z"
       id="path47"
       style="fill:#ffffff" />
    <path
       d="M2135 1810 c5 -16 3 -19 -12 -14 -15 5 -16 4 -3 -6 13 -10 11 -11 -7 -7 -19 4 -21 2 -14 -11 4 -10 6 -24 3 -32 -5 -13 -3 -13 13 0 17 13 18 13 13 -1 -3 -9 -1 -16 5 -16 7 0 19 -4 28 -7 23 -10 53 28 45 58 -4 17 -11 23 -21 20 -10 -4 -13 0 -11 13 3 14 -2 19 -21 21 -20 2 -23 -2 -18 -18z m45 -30 c5 0 10 -8 10 -19 0 -26 -32 -32 -59 -10 -13 11 -19 19 -14 19 5 0 15 -6 22 -12 10 -9 12 -10 7 -1 -4 7 -4 24 0 39 7 27 7 27 15 6 5 -12 13 -22 19 -22z"
       id="path48"
       style="fill:#ffffff" />
    <path
       d="M2252 1823 c-6 -3 -9 -9 -6 -15 4 -6 10 -5 16 3 8 11 9 11 5 -1 -2 -8 -10 -15 -18 -15 -8 0 -17 -4 -21 -9 -11 -15 3 -35 19 -29 9 4 14 2 11 -3 -3 -5 1 -16 10 -24 14 -13 15 -12 9 2 -4 11 -2 15 6 13 7 -3 19 -1 27 5 32 20 -19 86 -58 73z m46 -39 c2 -23 -1 -26 -21 -20 -12 3 -29 6 -37 6 -8 0 1 8 20 19 19 10 35 19 35 20 0 0 2 -11 3 -25z"
       id="path49"
       style="fill:#ffffff" />
    <path
       d="M1690 1806 c0 -9 5 -16 10 -16 6 0 10 4 10 9 0 6 -4 13 -10 16 -5 3 -10 -1 -10 -9z"
       id="path50"
       style="fill:#ffffff" />
    <path
       d="M2242 1674 c-7 -13 -6 -22 4 -32 21 -21 49 -11 49 18 0 31 -38 41 -53 14z m39 -17 c-13 -13 -26 -3 -16 12 3 6 11 8 17 5 6 -4 6 -10 -1 -17z"
       id="path51"
       style="fill:#ffffff" />
    <path
       d="M1725 1550 c-3 -5 -1 -10 4 -10 6 0 11 5 11 10 0 6 -2 10 -4 10 -3 0 -8 -4 -11 -10z"
       id="path52"
       style="fill:#ffffff" />
  </g>
</svg>
